# 3ds Max Wavefront OBJ Exporter v0.97b - (c)2007 guruware
# File Created: 09.02.2017 11:19:59

#
# object Plane001
#

v  -55.0863 0.0000 0.0201
v  0.0000 0.0000 0.0201
v  0.0000 0.0000 -166.2202
v  -55.0863 0.0000 -166.2202
v  55.0863 0.0000 0.0201
v  55.0863 0.0000 -166.2202
# 6 vertices

vn 0.0000 1.0000 -0.0000
# 1 vertex normals

vt 0.0070 0.0000 0.0000
vt 0.9444 0.0000 0.0000
vt 0.9444 1.0000 0.0000
vt 0.0070 1.0000 0.0000
# 4 texture coords

g Plane001
s 1
f 1/1/1 2/2/1 3/3/1 4/4/1 
f 5/1/1 6/4/1 3/3/1 2/2/1 
# 2 polygons

