# 3ds Max Wavefront OBJ Exporter v0.97b - (c)2007 guruware
# File Created: 14.02.2017 14:26:58

#
# object Cylinder002
#

v  29.2037 0.0000 -0.0000
v  28.8442 0.0000 -4.5685
v  16.8667 0.0000 -3.4664
v  17.0770 0.0000 -0.7950
v  27.7744 0.0000 -9.0245
v  16.2411 0.0000 -6.0721
v  26.0207 0.0000 -13.2582
v  15.2157 0.0000 -8.5478
v  23.6263 0.0000 -17.1655
v  13.8156 0.0000 -10.8326
v  20.6502 0.0000 -20.6502
v  12.0752 0.0000 -12.8703
v  17.1655 0.0000 -23.6263
v  10.0376 0.0000 -14.6106
v  13.2582 0.0000 -26.0207
v  7.7528 0.0000 -16.0107
v  9.0245 0.0000 -27.7744
v  5.2771 0.0000 -17.0362
v  4.5685 0.0000 -28.8442
v  2.6714 0.0000 -17.6617
v  -0.0000 0.0000 -29.2037
v  0.0000 0.0000 -17.8720
v  -4.5685 0.0000 -28.8442
v  -2.6714 0.0000 -17.6617
v  -9.0245 0.0000 -27.7744
v  -5.2771 0.0000 -17.0362
v  -13.2582 0.0000 -26.0207
v  -7.7528 0.0000 -16.0107
v  -17.1655 0.0000 -23.6263
v  -10.0376 0.0000 -14.6105
v  -20.6502 0.0000 -20.6502
v  -12.0752 0.0000 -12.8702
v  -23.6263 0.0000 -17.1655
v  -13.8155 0.0000 -10.8326
v  -26.0207 0.0000 -13.2582
v  -15.2157 0.0000 -8.5478
v  -27.7744 0.0000 -9.0244
v  -16.2412 0.0000 -6.0721
v  -28.8442 0.0000 -4.5684
v  -16.8667 0.0000 -3.4664
v  -29.2037 0.0000 0.0000
v  -17.0769 0.0000 -0.7950
v  -28.8442 0.0000 4.5685
v  -16.8667 0.0000 1.8764
v  28.8442 0.0000 4.5684
v  16.8667 0.0000 1.8764
# 46 vertices

vn 0.0000 1.0000 -0.0000
# 1 vertex normals

vt 0.9454 0.9554 1.0000
vt 0.9010 0.9554 1.0000
vt 0.9010 0.1799 1.0000
vt 0.9454 0.1799 1.0000
vt 0.8565 0.9554 1.0000
vt 0.8565 0.1799 1.0000
vt 0.8120 0.9554 1.0000
vt 0.8120 0.1799 1.0000
vt 0.7675 0.9554 1.0000
vt 0.7675 0.1799 1.0000
vt 0.7230 0.9554 1.0000
vt 0.7230 0.1799 1.0000
vt 0.6785 0.9554 1.0000
vt 0.6785 0.1799 1.0000
vt 0.6340 0.9554 1.0000
vt 0.6340 0.1799 1.0000
vt 0.5895 0.9554 1.0000
vt 0.5895 0.1799 1.0000
vt 0.5451 0.9554 1.0000
vt 0.5451 0.1799 1.0000
vt 0.5006 0.9554 1.0000
vt 0.5006 0.1799 1.0000
vt 0.5013 0.9554 1.0000
vt 0.4569 0.9554 1.0000
vt 0.4569 0.1799 1.0000
vt 0.5013 0.1799 1.0000
vt 0.4124 0.9554 1.0000
vt 0.4124 0.1799 1.0000
vt 0.3679 0.9554 1.0000
vt 0.3679 0.1799 1.0000
vt 0.3234 0.9554 1.0000
vt 0.3234 0.1799 1.0000
vt 0.2789 0.9554 1.0000
vt 0.2789 0.1799 1.0000
vt 0.2344 0.9554 1.0000
vt 0.2344 0.1799 1.0000
vt 0.1899 0.9554 1.0000
vt 0.1899 0.1799 1.0000
vt 0.1454 0.9554 1.0000
vt 0.1454 0.1799 1.0000
vt 0.1010 0.9554 1.0000
vt 0.1010 0.1799 1.0000
vt 0.0565 0.9554 1.0000
vt 0.0565 0.1799 1.0000
vt 0.0120 0.9554 1.0000
vt 0.0120 0.1799 1.0000
vt 0.9899 0.9554 1.0000
vt 0.9899 0.1799 1.0000
# 48 texture coords

g Cylinder002
s 8
f 1/1/1 2/2/1 3/3/1 4/4/1 
f 2/2/1 5/5/1 6/6/1 3/3/1 
f 5/5/1 7/7/1 8/8/1 6/6/1 
f 7/7/1 9/9/1 10/10/1 8/8/1 
f 9/9/1 11/11/1 12/12/1 10/10/1 
f 11/11/1 13/13/1 14/14/1 12/12/1 
f 13/13/1 15/15/1 16/16/1 14/14/1 
f 15/15/1 17/17/1 18/18/1 16/16/1 
f 17/17/1 19/19/1 20/20/1 18/18/1 
f 19/19/1 21/21/1 22/22/1 20/20/1 
f 21/23/1 23/24/1 24/25/1 22/26/1 
f 23/24/1 25/27/1 26/28/1 24/25/1 
f 25/27/1 27/29/1 28/30/1 26/28/1 
f 27/29/1 29/31/1 30/32/1 28/30/1 
f 29/31/1 31/33/1 32/34/1 30/32/1 
f 31/33/1 33/35/1 34/36/1 32/34/1 
f 33/35/1 35/37/1 36/38/1 34/36/1 
f 35/37/1 37/39/1 38/40/1 36/38/1 
f 37/39/1 39/41/1 40/42/1 38/40/1 
f 39/41/1 41/43/1 42/44/1 40/42/1 
f 41/43/1 43/45/1 44/46/1 42/44/1 
f 45/47/1 1/1/1 4/4/1 46/48/1 
# 22 polygons

