# 3ds Max Wavefront OBJ Exporter v0.97b - (c)2007 guruware
# File Created: 14.02.2017 14:14:18

#
# object Cylinder002
#

v  29.2037 0.0000 -0.0000
v  28.8442 0.0000 -4.5685
v  0.8939 0.0000 -0.1416
v  0.9050 0.0000 -0.0000
v  27.7744 0.0000 -9.0245
v  0.8607 0.0000 -0.2797
v  26.0207 0.0000 -13.2582
v  0.8064 0.0000 -0.4109
v  23.6263 0.0000 -17.1655
v  0.7322 0.0000 -0.5319
v  20.6502 0.0000 -20.6502
v  0.6399 0.0000 -0.6399
v  17.1655 0.0000 -23.6263
v  0.5320 0.0000 -0.7322
v  13.2582 0.0000 -26.0207
v  0.4109 0.0000 -0.8064
v  9.0245 0.0000 -27.7744
v  0.2797 0.0000 -0.8607
v  4.5685 0.0000 -28.8442
v  0.1416 0.0000 -0.8939
v  -0.0000 0.0000 -29.2037
v  0.0000 0.0000 -0.9050
v  -4.5685 0.0000 -28.8442
v  -0.1416 0.0000 -0.8939
v  -9.0245 0.0000 -27.7744
v  -0.2796 0.0000 -0.8607
v  -13.2582 0.0000 -26.0207
v  -0.4108 0.0000 -0.8064
v  -17.1655 0.0000 -23.6263
v  -0.5319 0.0000 -0.7322
v  -20.6502 0.0000 -20.6502
v  -0.6399 0.0000 -0.6399
v  -23.6263 0.0000 -17.1655
v  -0.7321 0.0000 -0.5319
v  -26.0207 0.0000 -13.2582
v  -0.8063 0.0000 -0.4109
v  -27.7744 0.0000 -9.0244
v  -0.8607 0.0000 -0.2797
v  -28.8442 0.0000 -4.5684
v  -0.8938 0.0000 -0.1416
v  -29.2037 0.0000 0.0000
v  -0.9050 0.0000 -0.0000
v  -28.8442 0.0000 4.5685
v  -0.8938 0.0000 0.1416
v  -27.7744 0.0000 9.0245
v  -0.8607 0.0000 0.2797
v  -26.0207 0.0000 13.2582
v  -0.8063 0.0000 0.4109
v  -23.6263 0.0000 17.1656
v  -0.7321 0.0000 0.5319
v  -20.6501 0.0000 20.6502
v  -0.6399 0.0000 0.6399
v  -17.1655 0.0000 23.6263
v  -0.5319 0.0000 0.7322
v  -13.2582 0.0000 26.0207
v  -0.4108 0.0000 0.8064
v  -9.0244 0.0000 27.7744
v  -0.2796 0.0000 0.8607
v  -4.5684 0.0000 28.8442
v  -0.1416 0.0000 0.8938
v  0.0000 0.0000 29.2037
v  0.0000 0.0000 0.9050
v  4.5685 0.0000 28.8442
v  0.1416 0.0000 0.8938
v  9.0245 0.0000 27.7744
v  0.2797 0.0000 0.8607
v  13.2583 0.0000 26.0207
v  0.4109 0.0000 0.8063
v  17.1656 0.0000 23.6263
v  0.5320 0.0000 0.7321
v  20.6502 0.0000 20.6501
v  0.6399 0.0000 0.6399
v  23.6264 0.0000 17.1655
v  0.7322 0.0000 0.5319
v  26.0207 0.0000 13.2582
v  0.8064 0.0000 0.4109
v  27.7744 0.0000 9.0244
v  0.8607 0.0000 0.2797
v  28.8442 0.0000 4.5684
v  0.8939 0.0000 0.1416
# 80 vertices

vn 0.0000 1.0000 -0.0000
# 1 vertex normals

vt 0.7500 0.0000 1.0000
vt 0.7750 0.0000 1.0000
vt 0.7750 1.0000 1.0000
vt 0.7500 1.0000 1.0000
vt 0.8000 0.0000 1.0000
vt 0.8000 1.0000 1.0000
vt 0.8250 0.0000 1.0000
vt 0.8250 1.0000 1.0000
vt 0.8500 0.0000 1.0000
vt 0.8500 1.0000 1.0000
vt 0.8750 0.0000 1.0000
vt 0.8750 1.0000 1.0000
vt 0.9000 0.0000 1.0000
vt 0.9000 1.0000 1.0000
vt 0.9250 0.0000 1.0000
vt 0.9250 1.0000 1.0000
vt 0.9500 0.0000 1.0000
vt 0.9500 1.0000 1.0000
vt 0.9750 0.0000 1.0000
vt 0.9750 1.0000 1.0000
vt 1.0000 0.0000 1.0000
vt 1.0000 1.0000 1.0000
vt 0.0000 0.0000 1.0000
vt 0.0250 0.0000 1.0000
vt 0.0250 1.0000 1.0000
vt 0.0000 1.0000 1.0000
vt 0.0500 0.0000 1.0000
vt 0.0500 1.0000 1.0000
vt 0.0750 0.0000 1.0000
vt 0.0750 1.0000 1.0000
vt 0.1000 0.0000 1.0000
vt 0.1000 1.0000 1.0000
vt 0.1250 0.0000 1.0000
vt 0.1250 1.0000 1.0000
vt 0.1500 0.0000 1.0000
vt 0.1500 1.0000 1.0000
vt 0.1750 0.0000 1.0000
vt 0.1750 1.0000 1.0000
vt 0.2000 0.0000 1.0000
vt 0.2000 1.0000 1.0000
vt 0.2250 0.0000 1.0000
vt 0.2250 1.0000 1.0000
vt 0.2500 0.0000 1.0000
vt 0.2500 1.0000 1.0000
vt 0.2750 0.0000 1.0000
vt 0.2750 1.0000 1.0000
vt 0.3000 0.0000 1.0000
vt 0.3000 1.0000 1.0000
vt 0.3250 0.0000 1.0000
vt 0.3250 1.0000 1.0000
vt 0.3500 0.0000 1.0000
vt 0.3500 1.0000 1.0000
vt 0.3750 0.0000 1.0000
vt 0.3750 1.0000 1.0000
vt 0.4000 0.0000 1.0000
vt 0.4000 1.0000 1.0000
vt 0.4250 0.0000 1.0000
vt 0.4250 1.0000 1.0000
vt 0.4500 0.0000 1.0000
vt 0.4500 1.0000 1.0000
vt 0.4750 0.0000 1.0000
vt 0.4750 1.0000 1.0000
vt 0.5000 0.0000 1.0000
vt 0.5000 1.0000 1.0000
vt 0.5250 0.0000 1.0000
vt 0.5250 1.0000 1.0000
vt 0.5500 0.0000 1.0000
vt 0.5500 1.0000 1.0000
vt 0.5750 0.0000 1.0000
vt 0.5750 1.0000 1.0000
vt 0.6000 0.0000 1.0000
vt 0.6000 1.0000 1.0000
vt 0.6250 0.0000 1.0000
vt 0.6250 1.0000 1.0000
vt 0.6500 0.0000 1.0000
vt 0.6500 1.0000 1.0000
vt 0.6750 0.0000 1.0000
vt 0.6750 1.0000 1.0000
vt 0.7000 0.0000 1.0000
vt 0.7000 1.0000 1.0000
vt 0.7250 0.0000 1.0000
vt 0.7250 1.0000 1.0000
# 82 texture coords

g Cylinder002
s 8
f 1/1/1 2/2/1 3/3/1 4/4/1 
f 2/2/1 5/5/1 6/6/1 3/3/1 
f 5/5/1 7/7/1 8/8/1 6/6/1 
f 7/7/1 9/9/1 10/10/1 8/8/1 
f 9/9/1 11/11/1 12/12/1 10/10/1 
f 11/11/1 13/13/1 14/14/1 12/12/1 
f 13/13/1 15/15/1 16/16/1 14/14/1 
f 15/15/1 17/17/1 18/18/1 16/16/1 
f 17/17/1 19/19/1 20/20/1 18/18/1 
f 19/19/1 21/21/1 22/22/1 20/20/1 
f 21/23/1 23/24/1 24/25/1 22/26/1 
f 23/24/1 25/27/1 26/28/1 24/25/1 
f 25/27/1 27/29/1 28/30/1 26/28/1 
f 27/29/1 29/31/1 30/32/1 28/30/1 
f 29/31/1 31/33/1 32/34/1 30/32/1 
f 31/33/1 33/35/1 34/36/1 32/34/1 
f 33/35/1 35/37/1 36/38/1 34/36/1 
f 35/37/1 37/39/1 38/40/1 36/38/1 
f 37/39/1 39/41/1 40/42/1 38/40/1 
f 39/41/1 41/43/1 42/44/1 40/42/1 
f 41/43/1 43/45/1 44/46/1 42/44/1 
f 43/45/1 45/47/1 46/48/1 44/46/1 
f 45/47/1 47/49/1 48/50/1 46/48/1 
f 47/49/1 49/51/1 50/52/1 48/50/1 
f 49/51/1 51/53/1 52/54/1 50/52/1 
f 51/53/1 53/55/1 54/56/1 52/54/1 
f 53/55/1 55/57/1 56/58/1 54/56/1 
f 55/57/1 57/59/1 58/60/1 56/58/1 
f 57/59/1 59/61/1 60/62/1 58/60/1 
f 59/61/1 61/63/1 62/64/1 60/62/1 
f 61/63/1 63/65/1 64/66/1 62/64/1 
f 63/65/1 65/67/1 66/68/1 64/66/1 
f 65/67/1 67/69/1 68/70/1 66/68/1 
f 67/69/1 69/71/1 70/72/1 68/70/1 
f 69/71/1 71/73/1 72/74/1 70/72/1 
f 71/73/1 73/75/1 74/76/1 72/74/1 
f 73/75/1 75/77/1 76/78/1 74/76/1 
f 75/77/1 77/79/1 78/80/1 76/78/1 
f 77/79/1 79/81/1 80/82/1 78/80/1 
f 79/81/1 1/1/1 4/4/1 80/82/1 
# 40 polygons

