# 3ds Max Wavefront OBJ Exporter v0.97b - (c)2007 guruware
# File Created: 09.02.2017 15:56:57

#
# object Plane003
#

v  0.4128 -0.6480 -3.8649
v  -2.0588 -1.6326 -8.8801
v  -7.1660 -0.9422 -6.4987
v  -4.6944 0.0423 -1.4835
v  -0.0065 -1.1658 6.0403
v  4.0049 -1.9204 9.9862
v  7.9831 -0.3966 6.2333
v  3.9716 0.3579 2.2874
# 8 vertices

vn 0.0347 0.9773 -0.2089
vn -0.0987 0.9541 0.2828
# 2 vertex normals

vt 0.0000 0.0000 0.0000
vt 1.0000 0.0000 0.0000
vt 1.0000 1.0000 0.0000
vt 0.0000 1.0000 0.0000
# 4 texture coords

g Plane003
s 1
f 1/1/1 2/2/1 3/3/1 4/4/1 
f 5/1/2 6/2/2 7/3/2 8/4/2 
# 2 polygons

