# 3ds Max Wavefront OBJ Exporter v0.97b - (c)2007 guruware
# File Created: 12.01.2017 17:23:59

#
# object Plane006
#

v  1.2949 -2.2308 -0.0000
v  -1.2845 2.2368 0.0000
v  5.1274 5.9388 0.0000
v  7.7068 1.4711 -0.0000
v  0.0052 0.0030 2.5794
v  0.0052 0.0030 -2.5794
v  6.4171 3.7049 -2.5794
v  6.4171 3.7049 2.5794
v  0.0052 -2.5794 -0.0030
v  0.0052 2.5794 -0.0030
v  6.4171 2.5794 -3.7049
v  6.4171 -2.5794 -3.7049
v  1.2949 -0.0000 2.2308
v  -1.2845 0.0000 -2.2368
v  5.1274 0.0000 -5.9388
v  7.7068 0.0000 -1.4711
v  0.0052 -2.5794 0.0030
v  0.0052 2.5794 0.0030
v  6.4171 2.5794 3.7049
v  6.4171 -2.5794 3.7049
v  -1.2845 -0.0000 2.2368
v  1.2949 0.0000 -2.2308
v  7.7068 0.0000 1.4711
v  5.1274 -0.0000 5.9388
v  -1.2845 -2.2368 -0.0000
v  1.2949 2.2308 0.0000
v  7.7068 -1.4711 0.0000
v  5.1274 -5.9388 -0.0000
v  0.0052 -0.0030 2.5794
v  0.0052 -0.0030 -2.5794
v  6.4171 -3.7049 -2.5794
v  6.4171 -3.7049 2.5794
# 32 vertices

vn -0.0000 0.0000 -1.0000
vn 0.5000 -0.8660 -0.0000
vn -0.3371 0.1168 -0.9342
vn 0.2402 -0.9707 -0.0000
vn 0.3371 -0.1168 -0.9342
vn 0.0000 0.0000 -1.0000
vn -0.1890 -0.9820 -0.0000
# 7 vertex normals

vt 0.0000 1.0000 0.0000
vt 0.0000 0.0000 0.0000
vt 1.0000 0.0000 0.0000
vt 1.0000 1.0000 0.0000
# 4 texture coords

g Plane006
s 1
f 1/1/1 2/2/1 3/3/1 4/4/1 
f 5/1/2 6/2/2 7/3/2 8/4/2 
f 9/1/3 10/2/3 11/3/3 12/4/3 
f 13/1/4 14/2/4 15/3/4 16/4/4 
f 17/1/5 18/2/5 19/3/5 20/4/5 
f 21/1/4 22/2/4 23/3/4 24/4/4 
f 25/1/6 26/2/6 27/3/6 28/4/6 
f 29/1/7 30/2/7 31/3/7 32/4/7 
# 8 polygons

