# 3ds Max Wavefront OBJ Exporter v0.97b - (c)2007 guruware
# File Created: 24.01.2017 17:19:09

#
# object Plane001
#

v  7.4039 -2.5794 -0.0000
v  7.4039 2.5794 -0.0000
v  -7.4039 2.5794 -0.0000
v  -7.4039 -2.5794 -0.0000
v  7.4039 0.0000 2.5794
v  7.4039 0.0000 -2.5794
v  -7.4039 0.0000 -2.5794
v  -7.4039 0.0000 2.5794
# 8 vertices

vn 0.0000 0.0000 1.0000
vn 0.0000 1.0000 -0.0000
# 2 vertex normals

vt 1.0000 0.0000 0.0000
vt 1.0000 1.0000 0.0000
vt 0.0000 1.0000 0.0000
vt 0.0000 0.0000 0.0000
# 4 texture coords

g Plane001
s 1
f 1/1/1 2/2/1 3/3/1 4/4/1 
f 5/1/2 6/2/2 7/3/2 8/4/2 
# 2 polygons

